<svg width="200" height="200" viewBox="0 0 200 200" fill="none" xmlns="http://www.w3.org/2000/svg">
<g clip-path="url(#clip0_242_15755)">
<path d="M0 50C0 22.3858 22.3858 0 50 0H150C177.614 0 200 22.3858 200 50V150C200 177.614 177.614 200 150 200H50C22.3858 200 0 177.614 0 150V50Z" fill="black"/>
<path d="M78.2532 151.951C82.6135 151.951 86.1521 148.419 86.1521 144.052V44.8252C86.1521 40.4648 82.6196 36.9263 78.2532 36.9263H44.8237C40.4634 36.9263 36.9248 40.4587 36.9248 44.8252V144.052C36.9248 148.413 40.4572 151.951 44.8237 151.951H78.2532Z" fill="white"/>
<path d="M155.176 106.398C159.536 106.398 163.075 102.865 163.075 98.4987V44.8252C163.075 40.4648 159.542 36.9263 155.176 36.9263H121.746C117.386 36.9263 113.847 40.4587 113.847 44.8252V98.4987C113.847 102.859 117.38 106.398 121.746 106.398H155.176Z" fill="white"/>
</g>
<defs>
<clipPath id="clip0_242_15755">
<rect width="200" height="200" fill="white"/>
</clipPath>
</defs>
</svg>
